<?xml version="1.0" encoding="utf-8"?>
<!-- Generator: Adobe Illustrator 25.0.1, SVG Export Plug-In . SVG Version: 6.00 Build 0)  -->
<svg version="1.1" id="Layer_1" xmlns="http://www.w3.org/2000/svg" xmlns:xlink="http://www.w3.org/1999/xlink" x="0px" y="0px"
	 viewBox="0 0 66 12" style="enable-background:new 0 0 66 12;" xml:space="preserve">
<style type="text/css">
	.st0{fill:#0D0D0D;}
</style>
<path id="ANTARA" class="st0" d="M2.5,12l0.9-2.6H8L9,12h2.4L7.1,0.7H4.5L0.2,12H2.5z M7.3,7.4H4.2l1.6-4.3L7.3,7.4z M15.1,12V4
	l5.2,8h2.3V0.7h-2.2v7.5l-4.7-7.5h-2.8V12H15.1z M29.9,12V2.8h3.6V0.7h-9.4v2.1h3.6V12H29.9z M35.2,12l0.9-2.6h4.6l0.9,2.6h2.4
	L39.8,0.7h-2.6L32.8,12H35.2z M40,7.4h-3.1l1.6-4.3L40,7.4z M47.8,12V7.6h1.2l2.2,4.4h2.5l-2.4-4.6c1.5-0.4,2.4-1.6,2.4-3.2
	c0-2-1.4-3.5-3.6-3.5h-4.4V12H47.8z M49.6,5.7h-1.8V2.6h1.8c1.1,0,1.8,0.6,1.8,1.6C51.3,5.1,50.7,5.7,49.6,5.7z M56.7,12l0.9-2.6
	h4.6l0.9,2.6h2.4L61.3,0.7h-2.6L54.4,12H56.7z M61.5,7.4h-3.1L60,3.1L61.5,7.4z"/>
</svg>
